<svg xmlns="http://www.w3.org/2000/svg" viewBox="0 0 200 200" width="100%" height="100%">
  <g transform="translate(0, 5)">
    <path d="M 100 60 L 100 20 L 130 20" stroke="black" stroke-width="5" fill="none" stroke-linejoin="round" stroke-linecap="round"/>

    <circle cx="38" cy="75" r="14" fill="white" stroke="black" stroke-width="5"/>
    <circle cx="162" cy="75" r="14" fill="white" stroke="black" stroke-width="5"/>

    <ellipse cx="100" cy="145" rx="40" ry="35" fill="white" stroke="black" stroke-width="5"/>

    <ellipse cx="100" cy="85" rx="55" ry="40" fill="white" stroke="black" stroke-width="5"/>

    <circle cx="80" cy="85" r="9" fill="#FF4500"/>
    <circle cx="120" cy="85" r="9" fill="#FF4500"/>

    <path d="M 80 105 Q 100 120 120 105" stroke="black" stroke-width="4" fill="none" stroke-linecap="round"/>

    <circle cx="130" cy="20" r="8" fill="white" stroke="black" stroke-width="5"/>

    <rect x="70" y="125" width="60" height="65" rx="4" fill="#F6F6F6" stroke="black" stroke-width="4"/>
    
    <path d="M 70 140 L 130 140" stroke="black" stroke-width="2"/>
    <text x="100" y="137" font-family="sans-serif" font-size="8" font-weight="bold" fill="black" text-anchor="middle">.JSON</text>
    
    <text x="100" y="175" font-family="monospace" font-size="32" font-weight="bold" fill="#FF4500" text-anchor="middle">{}</text>

    <ellipse cx="65" cy="150" rx="9" ry="18" fill="white" stroke="black" stroke-width="5" transform="rotate(-40 65 150)"/>
    <ellipse cx="135" cy="150" rx="9" ry="18" fill="white" stroke="black" stroke-width="5" transform="rotate(40 135 150)"/>
  </g>
</svg>